<svg width="80" height="19" viewBox="0 0 80 19" fill="none" xmlns="http://www.w3.org/2000/svg">
<path d="M35.1837 13.1046H35.2892V9.2701C35.2101 7.25536 33.5613 5.64357 31.5168 5.57858H28.826C26.7815 5.64357 25.146 7.25536 25.08 9.2701V14.8594C25.08 15.8603 25.5021 16.8091 26.2407 17.4851C26.9398 18.161 27.8631 18.5379 28.8392 18.5509H31.53C33.5877 18.4989 35.2364 16.8871 35.3024 14.8594H33.0601C33.0073 15.6653 32.3478 16.3152 31.53 16.3412H28.8392C28.0214 16.3022 27.3619 15.6653 27.3091 14.8594V13.1046H35.1837ZM28.826 7.78829H31.5168C32.3214 7.85329 32.9677 8.47721 33.0601 9.2701V10.9729H27.3091V9.2701C27.3883 8.47721 28.0214 7.85329 28.826 7.78829ZM79.8193 13.1306H79.938V9.2961C79.8456 7.28136 78.1969 5.66956 76.1392 5.60457H73.4484C71.4039 5.68256 69.7683 7.28136 69.6892 9.2961V14.8854C69.7024 15.8863 70.1245 16.8351 70.8631 17.511C71.5622 18.174 72.4855 18.5639 73.4484 18.5769H76.1392C78.1969 18.5249 79.8456 16.9131 79.9116 14.8854H77.6693C77.6165 15.6913 76.957 16.3282 76.1392 16.3672H73.4484C72.6306 16.3282 71.9711 15.6913 71.9315 14.8854V13.1306H79.8193ZM73.4616 7.81429H76.1392C76.9438 7.89228 77.5901 8.5032 77.6693 9.2961V10.9989H71.9447V9.2961C72.0239 8.5032 72.657 7.87928 73.4616 7.81429ZM11.6128 18.5509H6.16528C4.30546 18.5509 2.88092 17.953 1.95761 16.7571C1.1662 15.7693 0.796875 14.4174 0.796875 12.7277V0.197266H3.02602V12.7277C3.02602 13.9365 3.26344 14.8594 3.7251 15.4573C4.18675 16.0552 5.00454 16.3932 6.15209 16.3932H11.5996L11.6128 18.5509ZM15.9788 5.57858H13.7364V18.5509H15.9788V5.57858ZM14.8708 3.95379C15.6226 3.95379 16.2294 3.35586 16.2294 2.61495C16.2294 1.87405 15.6226 1.27613 14.8708 1.27613C14.119 1.27613 13.5122 1.87405 13.5122 2.61495C13.499 3.35586 14.119 3.95379 14.8708 3.95379ZM55.2591 5.57858H52.9904V18.5509H55.2591V5.57858ZM54.1248 3.95379C54.8766 3.95379 55.4834 3.35586 55.4834 2.61495C55.4834 1.87405 54.8766 1.27613 54.1248 1.27613C53.3729 1.27613 52.7662 1.87405 52.7662 2.61495C52.7662 3.35586 53.3729 3.95379 54.1248 3.95379ZM21.0438 3.73281C21.611 2.83593 22.5739 2.36799 24.0116 2.36799H25.4361V0.210263H23.9456C22.4024 0.210263 20.3183 0.626211 19.0785 2.57596C18.4058 3.71981 18.0892 5.03265 18.1288 6.34548V18.5509H20.3975V11.5448C20.3975 9.56907 21.3076 8.03526 23.3653 8.02226H23.7478C23.9852 7.12538 24.4864 6.31948 25.1591 5.68256H24.249C22.8641 5.64357 21.5055 6.03352 20.3711 6.80042V6.35848C20.3711 5.4356 20.5953 4.53871 21.0438 3.73281ZM51.3285 5.57858H49.1785L49.1389 5.74755V5.78655L46.9098 15.1064L45.2082 9.59506C45.0763 9.15312 44.8653 8.25623 44.3904 8.25623H43.2825C42.834 8.25623 42.623 9.15312 42.4779 9.59506L40.7368 15.1583L38.5076 5.79955V5.74755L38.468 5.56558H36.3576L36.5291 6.25449L39.3122 17.1991C39.4309 17.745 39.7607 18.5379 40.1564 18.5379H41.3435C41.792 18.5379 42.0953 17.719 42.2536 17.1991L43.8496 12.0517L45.4325 17.1991C45.5775 17.641 45.8809 18.5379 46.303 18.5379H47.4769C47.9254 18.5379 48.2552 17.641 48.3871 17.1991L51.1834 6.25449L51.3285 5.57858ZM67.7239 17.3941L65.2969 12.9226C66.761 12.4157 67.7766 11.0899 67.8426 9.55606V9.19211C67.803 7.15137 66.0883 5.52658 64.0174 5.56558H57.6334V18.5509H59.7834V14.9374C59.7834 14.2875 60.6276 13.1956 61.9202 13.1956H63.0809L65.6662 18.213L65.8245 18.5379H68.2647L67.7239 17.3941ZM64.0834 11.1289H61.9466C61.142 11.1289 60.3637 11.4018 59.757 11.9218V7.7103H64.0834C64.9276 7.69731 65.6134 8.34722 65.653 9.17911V9.54307C65.6003 10.349 64.9012 11.1549 64.0834 11.1159V11.1289Z" fill="#2D2D2D"/>
</svg>
