<svg width="137" height="27" viewBox="0 0 137 27" fill="none" xmlns="http://www.w3.org/2000/svg">
<path d="M18.7253 8.23115C17.9834 8.23115 17.3295 8.43378 16.7762 8.78837C16.1475 6.59751 14.2487 5.35645 11.369 5.35645H6.81694V6.9521H11.4948C13.884 6.9521 15.2924 8.25648 15.2924 10.536C15.2924 12.8155 13.884 14.1199 11.4948 14.1199H11.4571L11.7211 13.7273C12.2996 12.8535 12.8277 11.9923 12.8277 11.1818C12.8277 9.51021 11.7714 8.24382 9.70916 8.24382C7.92353 8.24382 6.57801 9.62418 6.57801 11.2452H8.27562C8.27562 10.4347 8.80377 9.83947 9.70916 9.83947C10.6774 9.83947 11.1301 10.4093 11.1301 11.2325C11.1301 11.8657 10.7277 12.4989 10.2876 13.1448L9.60856 14.1325H6.81694V15.7282H8.52712L5.54688 20.1226H12.6894V18.5142H8.47682L10.3756 15.7155H11.369C11.5325 15.7155 11.696 15.7155 11.8595 15.7029L16.8517 22.2628H19.002L17.3547 20.1099L20.4858 15.5002C21.2906 14.3605 22.2337 13.1194 22.2337 11.6884C22.2212 9.80148 20.7876 8.23115 18.7253 8.23115ZM16.2984 18.7422L13.7205 15.3863C14.6637 15.0823 15.4307 14.5758 15.984 13.8793C16.6002 14.6644 17.5685 15.1583 18.7379 15.1583C18.7505 15.1583 18.8134 15.1583 18.8259 15.1583L16.2984 18.7422ZM18.7253 13.5753C17.6439 13.5753 16.9397 12.7522 16.9397 11.7011C16.9397 11.6124 16.9397 11.5364 16.9523 11.4478C16.9523 11.4351 16.9523 11.4225 16.9523 11.3971C17.078 10.498 17.7445 9.82681 18.7128 9.82681C19.7942 9.82681 20.4984 10.65 20.4984 11.7011C20.511 12.7522 19.8068 13.5753 18.7253 13.5753Z" fill="#2D2D2D"/>
<path d="M13.3671 0C5.99822 0 0 6.04069 0 13.4617C0 20.8828 5.99822 26.9235 13.3671 26.9235C20.736 26.9235 26.7342 20.8828 26.7342 13.4491C26.7342 6.02802 20.736 0 13.3671 0ZM13.3671 25.3278C6.86588 25.3278 1.58443 20.009 1.58443 13.4617C1.58443 6.9145 6.86588 1.59565 13.3671 1.59565C19.8683 1.59565 25.1498 6.9145 25.1498 13.4617C25.1498 19.9963 19.8683 25.3278 13.3671 25.3278Z" fill="#2D2D2D"/>
<path d="M40.3288 13.0064C40.9904 12.3805 41.4114 11.4922 41.4114 10.5029C41.4114 9.51359 40.9904 8.62524 40.3288 7.99936C39.7274 7.43405 38.9255 7.09082 37.6825 7.09082H33.252V19.3258H35.5976V13.915H36.4396L40.7699 19.3258H43.6568L39.1059 13.7131C39.6071 13.5516 40.0081 13.3093 40.3288 13.0064ZM38.725 11.4518C38.5245 11.6739 38.2238 11.8152 37.5422 11.8152H35.5976V9.19056H37.5422C38.2238 9.19056 38.5245 9.35208 38.725 9.57417C38.9255 9.79625 39.0658 10.1597 39.0658 10.5231C39.0658 10.8663 38.9255 11.2095 38.725 11.4518Z" fill="#2D2D2D"/>
<path d="M47.6054 13.814H51.3343V11.7143H47.6054V9.19056H52.5371V7.09082H45.2598V19.3258H52.7176V17.2261H47.6054V13.814Z" fill="#2D2D2D"/>
<path d="M55.7852 19.3258H58.1308V13.814H61.8597V11.7143H58.1308V9.19056H63.0625V7.09082H55.7852V19.3258Z" fill="#2D2D2D"/>
<path d="M67.8749 7.09082H65.5293V19.3258H67.8749V7.09082Z" fill="#2D2D2D"/>
<path d="M79.6427 15.0658L72.8666 7.09082H71.2227V19.3258H73.5683V11.3509L80.3444 19.3258H81.9883V7.09082H79.6427V15.0658Z" fill="#2D2D2D"/>
<path d="M87.9022 13.814H91.6311V11.7143H87.9022V9.19056H92.834V7.09082H85.5566V19.3258H93.0144V17.2261H87.9022V13.814Z" fill="#2D2D2D"/>
<path d="M103.159 13.0064C103.821 12.3805 104.242 11.4922 104.242 10.5029C104.242 9.51359 103.821 8.62524 103.159 7.99936C102.557 7.43405 101.756 7.09082 100.513 7.09082H96.082V19.3258H98.4276V13.915H99.2696L103.58 19.3258H106.487L101.936 13.7131C102.437 13.5516 102.818 13.3093 103.159 13.0064ZM101.535 11.4518C101.335 11.6739 101.034 11.8152 100.352 11.8152H98.4076V9.19056H100.352C101.034 9.19056 101.335 9.35208 101.535 9.57417C101.736 9.79625 101.876 10.1597 101.876 10.5231C101.896 10.8663 101.756 11.2095 101.535 11.4518Z" fill="#2D2D2D"/>
<path d="M111.359 11.3912L108.672 7.09082H106.006L110.176 13.7938V19.3258H112.521V13.7938L116.671 7.09082H114.005L111.359 11.3912Z" fill="#2D2D2D"/>
<path d="M124.711 14.0968C125.553 12.9864 126.034 12.0375 126.034 10.5232C126.034 8.28218 124.15 6.66699 122.065 6.66699H121.984C119.899 6.66699 118.155 8.22161 118.015 10.4829H120.36C120.36 9.61471 121.122 8.80711 122.024 8.80711C122.947 8.80711 123.688 9.61471 123.688 10.4829C123.688 11.1289 123.608 11.7952 122.726 12.9258L117.514 19.326H126.475V17.1859H122.165L124.711 14.0968Z" fill="#2D2D2D"/>
<path d="M132.549 6.66699C130.183 6.66699 128.238 8.6254 128.238 11.0482C128.238 13.5517 130.183 15.3486 132.488 15.3486H132.649L130.343 19.326H132.929L135.796 14.3795C136.438 13.2691 136.999 12.1788 136.999 10.9472C136.999 8.32256 134.814 6.66699 132.549 6.66699ZM132.609 13.2287C131.406 13.2287 130.424 12.2394 130.424 11.028C130.424 9.81661 131.406 8.8273 132.609 8.8273C133.812 8.8273 134.794 9.81661 134.794 11.028C134.794 12.2394 133.812 13.2287 132.609 13.2287Z" fill="#2D2D2D"/>
</svg>
