<svg width="185" height="25" viewBox="0 0 185 25" fill="none" xmlns="http://www.w3.org/2000/svg">
<path d="M13.8 2.8999C13.8 0.899902 11.9 0.399902 10.4 0.399902V0.699902C11.3 0.699902 12 0.999902 12 1.6999C12 2.0999 11.7 2.6999 10.8 2.6999C10.1 2.6999 8.6 2.2999 7.5 1.8999C6.2 1.3999 5 0.999902 4 0.999902C2 0.999902 0.6 2.4999 0.6 4.1999C0.6 5.6999 1.7 6.1999 2.1 6.3999L2.2 6.1999C2 5.9999 1.7 5.7999 1.7 5.1999C1.7 4.7999 2.1 4.0999 3.1 4.0999C4 4.0999 5.2 4.4999 6.8 4.9999C8.2 5.3999 9.7 5.6999 10.5 5.7999V8.8999L9 10.1999V10.2999L10.5 11.5999V15.8999C9.7 16.3999 8.8 16.4999 8 16.4999C6.5 16.4999 5.2 16.0999 4.1 14.8999L8.2 12.8999V5.9999L3.2 8.1999C3.6 6.8999 4.7 5.9999 5.8 5.3999L5.7 5.0999C2.7 5.8999 0 8.6999 0 12.0999C0 16.0999 3.3 19.0999 7 19.0999C11 19.0999 13.6 15.8999 13.6 12.5999H13.4C12.8 13.8999 11.9 15.0999 10.8 15.6999V11.5999L12.4 10.2999V10.1999L10.8 8.8999V5.7999C12.3 5.7999 13.8 4.7999 13.8 2.8999ZM5.1 13.8999L3.9 14.4999C3.2 13.5999 2.8 12.3999 2.8 10.6999C2.8 9.9999 2.8 9.1999 3 8.5999L5.1 7.6999V13.8999ZM15.7 16.1999L14.4 17.1999L14.6 17.3999L15.2 16.8999L17.4 18.8999L20.4 16.8999L20.3 16.6999L19.5 17.1999L18.5 16.1999V9.3999L19.3 8.7999L21 10.1999V16.2999C21 20.0999 20.2 20.6999 18.5 21.2999V21.5999C21.3 21.6999 23.9 20.7999 23.9 15.8999V9.2999L24.8 8.5999L24.6 8.3999L23.8 8.9999L21.3 6.8999L18.5 8.9999V0.799902H18.3L14.8 3.1999V3.3999C15.2 3.5999 15.8 3.7999 15.8 4.8999L15.7 16.1999ZM34 15.0999L31.5 16.9999L29 14.9999V13.7999L33.7 10.5999V10.4999L31.3 6.8999L26.1 9.6999V16.2999L25.1 17.0999L25.3 17.2999L26.2 16.5999L29.6 19.0999L34.1 15.4999L34 15.0999ZM29 13.3999V8.4999L29.2 8.3999L31.4 11.8999L29 13.3999ZM53.1 1.9999C53.1 1.6999 53 1.3999 52.9 1.0999H52.7C52.4 1.8999 52 2.2999 51 2.2999C50.1 2.2999 49.5 1.7999 49.1 1.3999L46.2 4.6999L46.4 4.8999L47.4 3.9999C48 4.4999 48.5 4.8999 49.9 4.9999V13.2999L44 3.1999C43.5 2.3999 42.8 1.2999 41.4 1.2999C39.8 1.2999 38.4 2.6999 38.6 4.8999H38.9C39 4.2999 39.3 3.5999 40 3.5999C40.5 3.5999 41 4.0999 41.3 4.5999V7.8999C39.5 7.8999 38.3 8.6999 38.3 10.1999C38.3 10.9999 38.7 12.1999 39.9 12.4999V12.2999C39.7 12.0999 39.6 11.8999 39.6 11.5999C39.6 11.0999 40 10.6999 40.7 10.6999H41.2V14.8999C39.1 14.8999 37.4 16.0999 37.4 18.0999C37.4 19.9999 39 20.8999 40.8 20.7999V20.5999C39.7 20.4999 39.2 19.9999 39.2 19.2999C39.2 18.3999 39.8 17.9999 40.6 17.9999C41.4 17.9999 42.1 18.4999 42.6 19.0999L45.5 15.8999L45.3 15.6999L44.6 16.4999C43.5 15.4999 42.9 15.1999 41.6 14.9999V4.9999L49.6 18.9999H50.2V4.9999C51.7 4.8999 53.1 3.6999 53.1 1.9999ZM60.4 15.0999L57.9 16.9999L55.4 14.9999V13.7999L60.1 10.5999V10.4999L57.7 6.8999L52.5 9.6999V16.2999L51.5 17.0999L51.7 17.2999L52.6 16.5999L56 19.0999L60.5 15.4999L60.4 15.0999ZM55.4 13.3999V8.4999L55.6 8.3999L57.8 11.8999L55.4 13.3999ZM76.7 7.9999L76 8.4999L74.1 6.8999L71.9 8.8999L72.8 9.7999V17.2999L70.4 15.7999V9.5999L71.2 9.0999L68.9 6.8999L66.7 8.8999L67.6 9.7999V16.9999L67.3 17.1999L65.2 15.6999V9.6999C65.2 8.2999 64.5 7.8999 63.7 7.3999C63 6.8999 62.6 6.5999 62.6 5.8999C62.6 5.2999 63.2 4.9999 63.5 4.7999V4.5999C62.7 4.5999 60.6 5.3999 60.6 7.2999C60.6 8.2999 61.1 8.6999 61.6 9.1999C62.1 9.6999 62.6 10.0999 62.6 10.9999V16.7999L61.5 17.5999L61.7 17.7999L62.7 16.9999L65 18.9999L67.5 17.2999L70.3 18.9999L75.6 15.8999V9.1999L76.9 8.1999L76.7 7.9999ZM95.3 2.4999L94.3 3.3999L92.1 1.3999L88.8 3.7999V1.5999H88.5L88.6 17.7999C88.3 17.7999 87.4 17.5999 86.7 17.3999L86.5 3.8999C86.5 2.8999 85.8 1.4999 84 1.4999C82.2 1.4999 81 2.8999 81 4.2999H81.3C81.4 3.6999 81.7 3.1999 82.3 3.1999C82.9 3.1999 83.4 3.5999 83.4 4.8999V8.7999C81.6 8.8999 80.5 9.8999 80.5 11.1999C80.5 11.9999 80.9 13.1999 82.1 13.1999V12.9999C81.7 12.7999 81.6 12.4999 81.6 12.2999C81.6 11.6999 82.1 11.4999 82.9 11.4999H83.3V17.6999C81.8 18.1999 81.2 19.2999 81.2 20.4999C81.2 22.1999 82.5 23.3999 84.5 23.3999C85.9 23.3999 87.1 23.1999 88.3 22.8999C89.3 22.6999 90.6 22.3999 91.2 22.3999C92 22.3999 92.3 22.7999 92.3 23.2999C92.3 23.9999 92 24.2999 91.6 24.3999V24.5999C93.2 24.2999 94.2 23.2999 94.2 21.7999C94.2 20.2999 92.7 19.3999 91.1 19.3999C90.3 19.3999 88.6 19.6999 87.4 19.8999C86 20.1999 84.6 20.3999 84.2 20.3999C83.5 20.3999 82.7 20.0999 82.7 19.0999C82.7 18.2999 83.4 17.5999 85.1 17.5999C86 17.5999 87.1 17.6999 88.2 17.9999C89.4 18.2999 90.5 18.5999 91.5 18.5999C93 18.5999 94.3 18.0999 94.3 15.9999V3.6999L95.5 2.6999L95.3 2.4999ZM91.2 8.5999C90.9 8.8999 90.5 9.1999 90 9.1999C89.5 9.1999 89 8.8999 88.8 8.5999V4.1999L89.8 3.4999L91.2 4.7999V8.5999ZM91.2 11.5999C91 11.3999 90.5 11.0999 90 11.0999C89.5 11.0999 89 11.3999 88.8 11.5999V8.9999C89 9.1999 89.5 9.4999 90 9.4999C90.5 9.4999 91 9.1999 91.2 8.9999V11.5999ZM91.2 16.2999C91.2 17.0999 90.7 17.8999 89.6 17.8999H88.8V11.9999C89 11.7999 89.5 11.4999 90 11.4999C90.5 11.4999 90.9 11.7999 91.2 11.9999V16.2999ZM104.9 9.1999L101.7 6.8999L96.8 9.6999V16.1999L95.8 16.9999L95.9 17.1999L96.7 16.5999L99.9 18.9999L104.9 15.9999V9.1999ZM99.5 15.4999V8.2999L102 10.0999V17.1999L99.5 15.4999ZM114.4 7.0999H114.2C113.9 7.2999 113.6 7.4999 113.3 7.4999C112.9 7.4999 112.4 7.2999 112.2 6.9999H112L110.3 8.8999L108.6 6.9999L105.6 8.9999L105.7 9.1999L106.5 8.6999L107.5 9.7999V16.0999L106.2 17.0999L106.4 17.2999L107 16.7999L109.4 18.7999L112.5 16.6999L112.4 16.4999L111.5 16.9999L110.3 15.9999V8.9999C110.8 9.4999 111.4 9.9999 112.1 9.9999C113.5 10.0999 114.3 8.6999 114.4 7.0999ZM126.4 16.6999L123 18.9999L118.4 11.9999L121.7 6.8999H121.9C122.3 7.2999 122.9 7.6999 123.6 7.6999C124.3 7.6999 124.8 7.2999 125.1 6.8999H125.3C125.2 8.8999 123.8 10.0999 122.8 10.0999C121.8 10.0999 121.3 9.5999 120.7 9.2999L120.4 9.7999L125.4 17.1999L126.4 16.5999V16.6999ZM115.4 16.1999L114.1 17.1999L114.3 17.3999L114.9 16.8999L117.1 18.8999L120.1 16.8999L119.9 16.6999L119.1 17.1999L118.1 16.1999V0.799902H118L114.4 3.1999V3.3999C114.8 3.5999 115.4 3.6999 115.4 4.8999V16.1999ZM143 2.8999C143 0.899902 141.1 0.399902 139.6 0.399902V0.699902C140.5 0.699902 141.2 0.999902 141.2 1.6999C141.2 2.0999 140.9 2.6999 140 2.6999C139.3 2.6999 137.8 2.2999 136.7 1.8999C135.4 1.4999 134.2 1.0999 133.2 1.0999C131.2 1.0999 129.8 2.5999 129.8 4.2999C129.8 5.7999 130.9 6.2999 131.3 6.4999L131.4 6.2999C131.1 6.0999 130.8 5.8999 130.8 5.2999C130.8 4.8999 131.2 4.1999 132.2 4.1999C133.1 4.1999 134.3 4.5999 135.9 5.0999C137.3 5.4999 138.8 5.7999 139.6 5.8999V8.9999L138.1 10.2999V10.3999L139.6 11.6999V15.9999C138.8 16.4999 137.9 16.5999 137.1 16.5999C135.6 16.5999 134.3 16.1999 133.2 14.9999L137.3 12.9999V5.9999L132.3 8.1999C132.8 6.8999 133.9 5.9999 134.9 5.2999L134.8 5.0999C131.8 5.8999 129.1 8.5999 129.1 11.9999C129.1 15.9999 132.4 18.9999 136.1 18.9999C140.1 18.9999 142.7 15.7999 142.7 12.4999H142.5C141.9 13.7999 141 14.9999 139.9 15.5999V11.4999L141.5 10.1999V10.0999L140 8.7999V5.7999C141.5 5.7999 143 4.7999 143 2.8999ZM134.3 13.8999L133.1 14.4999C132.4 13.5999 132 12.3999 132 10.6999C132 9.9999 132.1 9.1999 132.3 8.5999L134.4 7.6999L134.3 13.8999ZM146.5 1.8999H146.4L144.4 3.5999V3.6999L146.1 5.5999H146.3L148.3 3.8999V3.7999L146.5 1.8999ZM149.5 16.6999L148.7 17.1999L147.7 16.1999V9.2999L148.7 8.5999L148.5 8.3999L147.8 8.9999L146 6.8999L143.1 8.8999L143.3 9.1999L144 8.6999L144.9 9.7999V16.2999L143.6 17.2999L143.7 17.4999L144.4 16.9999L146.6 18.9999L149.6 16.9999L149.5 16.6999ZM166.2 16.5999L165.5 17.0999L164.4 16.0999V9.2999L165.4 8.4999L165.2 8.2999L164.4 8.9999L162.1 6.8999L159.1 8.9999L156.8 6.8999L154 8.9999L152.2 6.8999L149.3 8.8999L149.4 9.1999L150.1 8.6999L151.1 9.7999V16.2999L150.3 17.0999L152.6 18.9999L154.8 16.9999L153.9 16.0999V9.2999L154.8 8.6999L156.3 10.0999V16.0999L155.5 16.8999L157.8 18.7999L160 16.7999L159.1 15.8999V9.2999L159.9 8.7999L161.5 10.1999V16.1999L160.8 16.8999L163.1 18.9999L166.2 16.8999V16.5999ZM174.9 15.0999L172.4 16.9999L169.9 14.9999V13.7999L174.6 10.5999V10.4999L172.2 6.8999L167 9.6999V16.4999L170.5 18.9999L175 15.3999L174.9 15.0999ZM169.9 13.3999V8.4999L170.1 8.3999L172.3 11.8999L169.9 13.3999ZM184 12.4999L182.1 10.9999C183.4 9.8999 183.9 8.3999 183.9 7.3999V6.7999H183.7C183.5 7.2999 183.1 7.7999 182.3 7.7999C181.5 7.7999 181 7.3999 180.5 6.7999L176 9.2999V12.8999L177.7 14.1999C176 15.6999 175.7 16.6999 175.7 17.4999C175.7 18.4999 176.2 19.1999 177 19.4999L177.1 19.2999C176.9 19.0999 176.7 18.9999 176.7 18.4999C176.7 18.1999 177.1 17.6999 177.9 17.6999C178.9 17.6999 179.5 18.3999 179.8 18.6999L184.1 16.0999V12.4999H184ZM182.9 9.4999C182.2 10.6999 180.7 11.8999 179.8 12.4999L178.7 11.5999V8.0999C179.1 9.0999 180.2 9.8999 181.3 9.8999C182 9.8999 182.4 9.7999 182.9 9.4999ZM181.2 17.4999C180.7 16.3999 179.5 15.5999 178.3 15.5999C178 15.5999 177.2 15.5999 176.4 16.0999C176.9 15.2999 178.2 13.8999 179.9 12.8999L181.1 13.8999L181.2 17.4999Z" fill="#2D2D2D"/>
</svg>
